<svg width="32" height="32" viewBox="0 0 32 32" fill="none" xmlns="http://www.w3.org/2000/svg">
<path d="M24.4764 16.9713C24.5199 21.6713 28.5999 23.2355 28.6449 23.2555C28.6104 23.3655 27.9932 25.4845 26.4957 27.6728C25.2012 29.5648 23.8574 31.4498 21.7412 31.4893C19.6617 31.5273 18.9929 30.2558 16.6152 30.2558C14.2382 30.2558 13.4954 31.4498 11.5267 31.5273C9.48366 31.6048 7.92791 29.481 6.62266 27.5963C3.95566 23.7403 1.91741 16.7 4.65416 11.9478C6.01366 9.58777 8.44366 8.09352 11.0809 8.05502C13.0869 8.01677 14.9804 9.40452 16.2067 9.40452C17.4322 9.40452 19.7332 7.73552 22.1522 7.98052C23.1649 8.02277 26.0074 8.38951 27.8327 11.0615C27.6859 11.1528 24.4412 13.0418 24.4764 16.9713ZM20.5682 5.42976C21.6527 4.11701 22.3827 2.28901 22.1837 0.470764C20.6202 0.533514 18.7297 1.51251 17.6084 2.82476C16.6034 3.98651 15.7234 5.84651 15.9607 7.62877C17.7034 7.76376 19.4834 6.74327 20.5682 5.42976Z" fill="#555555"/>
</svg>
