<svg width="360" height="400" viewBox="0 0 360 400" fill="none" xmlns="http://www.w3.org/2000/svg">
<path d="M274.342 25.9903C274.344 19.3453 271.904 12.9717 267.558 8.27159C263.212 3.57152 257.318 0.929983 251.17 0.928102C248.126 0.92717 245.112 1.57432 242.3 2.83259C239.487 4.09087 236.931 5.93564 234.778 8.26156C230.43 12.959 227.987 19.3311 227.985 25.9761C227.985 39.8089 251.164 86.5142 251.164 86.5142C251.164 86.5142 274.342 39.8231 274.342 25.9903ZM240.086 25.9903C240.034 24.3841 240.282 22.7831 240.814 21.2825C241.347 19.782 242.153 18.4127 243.186 17.2562C244.218 16.0997 245.455 15.1797 246.824 14.551C248.192 13.9224 249.663 13.5979 251.15 13.5969C252.637 13.596 254.109 13.9186 255.478 14.5455C256.847 15.1724 258.085 16.0908 259.119 17.246C260.153 18.4011 260.961 19.7694 261.495 21.2693C262.029 22.7691 262.278 24.3699 262.228 25.9761C262.131 29.0788 260.923 32.0194 258.859 34.1778C256.794 36.3362 254.035 37.5436 251.163 37.5454C248.291 37.5473 245.531 36.3434 243.465 34.1876C241.398 32.0319 240.187 29.0928 240.086 25.9903ZM301.813 235.398C294.463 235.398 287.415 236.065 280.944 237.143L115.687 171.284C118.312 168.731 119.782 165.893 119.782 162.914C119.75 161.343 119.353 159.806 118.627 158.445L229.009 126.693C235.046 128.637 242.436 129.814 250.612 129.814C270.562 129.814 286.706 122.948 286.706 114.464C286.706 105.951 270.562 99.0985 250.612 99.0985C230.662 99.0985 214.519 105.979 214.519 114.464C214.536 115.457 214.772 116.412 215.227 117.329L99.8849 146.087C90.2169 143.124 80.2054 141.676 70.1568 141.789C42.7649 141.789 20.5443 151.252 20.5443 162.928C20.5443 174.604 42.7649 184.067 70.1568 184.067C77.6905 184.067 84.7255 183.287 91.1305 182.01L248.499 251.047C246.006 253.771 244.483 256.722 244.483 259.885C244.483 262.581 245.743 265.05 247.581 267.447L84.1217 333.575C82.0568 333.49 79.9699 333.443 77.8611 333.433C35.3361 333.433 0.817383 348.132 0.817383 366.207C0.817383 384.324 35.3361 399.022 77.8611 399.022C120.386 399.022 154.905 384.352 154.905 366.221C154.905 363.099 153.816 360.092 151.886 357.24L286.627 283.266C291.484 283.834 296.51 284.189 301.787 284.189C333.457 284.189 359.143 273.264 359.143 259.744C359.143 246.351 333.457 235.398 301.787 235.398H301.813Z" fill="url(#paint0_linear_47_106)"/>
<defs>
<linearGradient id="paint0_linear_47_106" x1="179.98" y1="0.928101" x2="179.98" y2="399.022" gradientUnits="userSpaceOnUse">
<stop stop-color="#1271EB"/>
<stop offset="1" stop-color="#DFECFF"/>
</linearGradient>
</defs>
</svg>
