<svg width="32" height="32" viewBox="0 0 32 32" fill="none" xmlns="http://www.w3.org/2000/svg">
<path fill-rule="evenodd" clip-rule="evenodd" d="M28.48 16.2955C28.48 15.3737 28.3973 14.4873 28.2436 13.6364H16V18.665H22.9964C22.695 20.29 21.7791 21.6669 20.4023 22.5887V25.8505H24.6036C27.0618 23.5873 28.48 20.2546 28.48 16.2955Z" fill="#555555"/>
<path fill-rule="evenodd" clip-rule="evenodd" d="M16.0001 29C19.5101 29 22.4528 27.8359 24.6037 25.8504L20.4024 22.5886C19.2383 23.3686 17.7492 23.8295 16.0001 23.8295C12.6142 23.8295 9.74827 21.5427 8.72599 18.47H4.38281V21.8381C6.5219 26.0868 10.9183 29 16.0001 29Z" fill="#555555"/>
<path fill-rule="evenodd" clip-rule="evenodd" d="M8.72591 18.47C8.46591 17.69 8.31818 16.8569 8.31818 16C8.31818 15.1432 8.46591 14.31 8.72591 13.53V10.1619H4.38273C3.50227 11.9169 3 13.9023 3 16C3 18.0978 3.50227 20.0832 4.38273 21.8382L8.72591 18.47Z" fill="#555555"/>
<path fill-rule="evenodd" clip-rule="evenodd" d="M16.0001 8.17045C17.9087 8.17045 19.6224 8.82635 20.9696 10.1145L24.6983 6.3859C22.4469 4.28818 19.5042 3 16.0001 3C10.9183 3 6.5219 5.91318 4.38281 10.1618L8.72599 13.53C9.74827 10.4573 12.6142 8.17045 16.0001 8.17045Z" fill="#555555"/>
</svg>
