<svg width="14" height="14" viewBox="0 0 14 14" fill="none" xmlns="http://www.w3.org/2000/svg">
<path fill-rule="evenodd" clip-rule="evenodd" d="M2.34733 5.25L2.33333 5.20975C2.01833 4.30733 1.75 3.07417 1.75 2.33333C1.75 2.0125 2.0125 1.75 2.33333 1.75H4.08333C4.39275 1.75 4.6895 1.87292 4.90829 2.09171C5.12708 2.3105 5.25 2.60725 5.25 2.91667V4.08333C5.25 4.39275 5.12708 4.6895 4.90829 4.90829C4.6895 5.12708 4.39275 5.25 4.08333 5.25H3.59508C4.06594 6.4103 4.76476 7.46436 5.6502 8.3498C6.53564 9.23524 7.5897 9.93406 8.75 10.4049V9.91667C8.75 9.60725 8.87292 9.3105 9.09171 9.09171C9.3105 8.87292 9.60725 8.75 9.91667 8.75H11.0833C11.3928 8.75 11.6895 8.87292 11.9083 9.09171C12.1271 9.3105 12.25 9.60725 12.25 9.91667V11.6667C12.25 11.9292 11.9292 12.25 11.6667 12.25C10.6604 12.25 9.66 11.984 8.75 11.6667C5.76683 10.598 3.402 8.23317 2.34733 5.25Z" fill="#5E5E5E"/>
</svg>
